HIERARCHY
ROOT Hips
{
    OFFSET 0.000000 0.000000 0.000000
    CHANNELS 6 Xposition Yposition Zposition Zrotation Xrotation Yrotation
    JOINT Spine
    {
        OFFSET -0.000000 0.101274 0.000000
        CHANNELS 3 Zrotation Xrotation Yrotation
        JOINT Spine1
        {
            OFFSET 0.000000 0.255185 -0.000000
            CHANNELS 3 Zrotation Xrotation Yrotation
            JOINT Neck
            {
                OFFSET 0.000000 0.215007 -0.000000
                CHANNELS 3 Zrotation Xrotation Yrotation
                JOINT Head
                {
                    OFFSET -0.000000 0.113627 0.019823
                    CHANNELS 3 Zrotation Xrotation Yrotation
                    End Site
                    {
                        OFFSET 0.000000 0.198228 0.000000
                    }
                }
            }
            JOINT LeftShoulder
            {
                OFFSET 0.039640 0.180737 -0.004277
                CHANNELS 3 Zrotation Xrotation Yrotation
                JOINT LeftArm
                {
                    OFFSET 0.162509 0.000000 0.000000
                    CHANNELS 3 Zrotation Xrotation Yrotation
                    JOINT LeftForeArm
                    {
                        OFFSET 0.276830 -0.000000 0.000000
                        CHANNELS 3 Zrotation Xrotation Yrotation
                        JOINT LeftHand
                        {
                            OFFSET 0.259221 -0.000000 0.000000
                            CHANNELS 3 Zrotation Xrotation Yrotation
                            End Site
                            {
                                OFFSET 0.145521 0.000000 -0.031868
                            }
                        }
                    }
                }
            }
            JOINT RightShoulder
            {
                OFFSET -0.039640 0.180737 -0.004277
                CHANNELS 3 Zrotation Xrotation Yrotation
                JOINT RightArm
                {
                    OFFSET -0.162509 0.000000 -0.000000
                    CHANNELS 3 Zrotation Xrotation Yrotation
                    JOINT RightForeArm
                    {
                        OFFSET -0.276830 -0.000000 0.000000
                        CHANNELS 3 Zrotation Xrotation Yrotation
                        JOINT RightHand
                        {
                            OFFSET -0.259221 -0.000000 0.000000
                            CHANNELS 3 Zrotation Xrotation Yrotation
                            End Site
                            {
                                OFFSET -0.145521 0.000000 -0.031868
                            }
                        }
                    }
                }
            }
        }
    }
    JOINT LeftUpLeg
    {
        OFFSET 0.099114 -0.000000 0.000000
        CHANNELS 3 Zrotation Xrotation Yrotation
        JOINT LeftLeg
        {
            OFFSET -0.000000 -0.425908 0.000000
            CHANNELS 3 Zrotation Xrotation Yrotation
            JOINT LeftFoot
            {
                OFFSET -0.000000 -0.428393 -0.000000
                CHANNELS 3 Zrotation Xrotation Yrotation
                JOINT LeftToeBase
                {
                    OFFSET 0.000000 -0.064424 0.148671
                    CHANNELS 3 Zrotation Xrotation Yrotation
                    End Site
                    {
                        OFFSET 0.000000 0.000000 0.039646
                    }
                }
            }
        }
    }
    JOINT RightUpLeg
    {
        OFFSET -0.099114 0.000000 -0.000000
        CHANNELS 3 Zrotation Xrotation Yrotation
        JOINT RightLeg
        {
            OFFSET -0.000000 -0.425908 -0.000000
            CHANNELS 3 Zrotation Xrotation Yrotation
            JOINT RightFoot
            {
                OFFSET -0.000000 -0.428393 0.000000
                CHANNELS 3 Zrotation Xrotation Yrotation
                JOINT RightToeBase
                {
                    OFFSET -0.000000 -0.064424 0.148671
                    CHANNELS 3 Zrotation Xrotation Yrotation
                    End Site
                    {
                        OFFSET 0.000000 0.000000 0.039646
                    }
                }
            }
        }
    }
}
MOTION
Frames:    9
Frame Time:    0.008333
0.063386 1.154635 -1.081844 0.825599 0.659341 -153.451233 -0.152400 -11.444090 -0.768054 1.594629 7.958812 -0.966628 -16.150959 31.270546 14.298020 -6.414878 14.761084 8.135889 -10.745211 23.397846 -9.389671 -6.858970 20.346575 -31.870926 28.454769 -0.631748 -91.165527 83.291939 39.486115 -25.994350 16.036432 4.923557 9.479929 24.286861 1.888974 21.068306 0.063575 -0.058916 47.180828 -64.022621 42.226662 -5.151052 10.651315 -3.637565 7.295649 -0.000001 3.440434 0.000001 3.009023 -1.546686 5.738667 0.000003 -0.453822 0.000006 -7.640345 -1.522544 3.818862 0.000001 6.794702 0.000002 -1.603164 -2.625580 -2.024880 -0.000000 -1.045306 -0.000001
0.017374 1.141517 -1.114851 4.029498 -1.027537 -157.074417 -0.631889 -7.136480 -5.073215 -4.295545 11.694335 -4.076775 -8.468620 15.285468 7.376430 -3.023742 5.455944 5.553269 -4.436367 23.270159 -32.123222 -1.497977 24.079824 -41.667088 15.209082 6.472236 -67.479866 51.576855 39.014400 -14.169974 15.295318 13.131224 7.504420 30.463610 14.465878 20.215544 4.674716 -1.511119 72.125610 -70.518761 27.615910 -5.035955 11.971784 -3.382654 8.358830 -0.000001 6.323093 0.000002 3.040717 -3.628799 5.147710 0.000001 -1.086337 0.000004 -7.413533 -2.875646 9.976892 -0.000001 10.731834 0.000002 -1.713668 -5.343916 -1.169784 -0.000000 -2.153425 -0.000001
-0.001351 1.136982 -1.125616 4.320724 -1.382064 -152.894608 -0.579737 -8.012086 -4.152195 -2.733748 13.030107 -3.396378 -2.203708 6.717517 2.367331 1.757777 -0.689076 2.144784 0.678016 20.755615 -39.307690 3.893596 27.787205 -49.727020 2.629267 1.615257 -58.457260 41.286785 30.850986 -17.659575 7.415450 16.656340 5.669455 30.364702 17.545080 13.144612 6.150786 -0.352216 86.735207 -63.808685 4.531965 0.464522 11.419715 -4.805733 8.041725 -0.000000 8.742158 0.000002 2.649335 -7.908999 3.056357 -0.000001 -2.320369 -0.000002 -7.651237 -3.030533 14.448603 0.000003 15.427427 -0.000008 -2.612410 -9.611385 -3.311522 -0.000000 -3.850635 -0.000002
-0.011603 1.132120 -1.124093 4.760046 -1.419187 -149.734482 -0.468179 -8.985451 -2.994954 -0.916541 14.174164 -2.644695 -0.888819 5.540311 -0.646725 3.169927 -1.548711 -0.650987 4.197735 15.954275 -40.317024 8.539661 27.903629 -58.389812 -5.411396 -3.547656 -56.846561 32.985302 28.028076 -23.516815 2.644955 18.079231 3.407066 32.580505 17.916769 6.079478 7.514887 0.443175 93.355698 -55.293961 -10.862833 7.922665 10.948458 -6.868408 7.239977 0.000001 11.026975 0.000000 2.013402 -11.712798 0.640720 -0.000002 -3.585416 -0.000006 -7.499041 -3.000834 15.389460 0.000001 17.907484 -0.000006 -4.227877 -13.003522 -7.490776 -0.000000 -5.645215 -0.000000
-0.015512 1.128843 -1.119874 5.472181 -1.575969 -148.445374 -0.396698 -9.176880 -2.485878 0.325473 15.018736 -2.454542 -1.308432 5.718025 -3.681611 3.198532 -1.130740 -3.771752 5.879868 12.153260 -38.038776 11.242134 26.740355 -65.956993 -10.579854 -7.378317 -55.489746 22.813309 30.873047 -24.304089 0.601877 16.768627 1.664203 36.221401 16.483004 2.079654 7.722364 0.722986 95.316200 -48.586487 -16.425272 13.049724 11.244488 -8.876192 7.104437 0.000000 13.215870 -0.000001 1.772476 -14.116525 -0.872670 0.000000 -4.686966 0.000001 -7.086120 -3.338770 14.795293 0.000003 18.406866 -0.000009 -5.557228 -14.569238 -11.141960 -0.000001 -7.261651 0.000002
-0.015090 1.128182 -1.116623 6.379884 -1.892939 -148.518417 -0.421447 -8.884721 -2.726738 1.033561 15.236485 -2.870886 -2.033245 4.671499 -5.998003 3.118292 -1.182168 -6.122449 6.382849 10.106417 -33.844162 12.440030 26.036116 -71.811562 -13.282063 -10.655906 -51.927670 13.089700 35.466763 -21.309916 -0.076575 14.073897 0.640502 40.254963 15.025030 0.825225 6.558808 0.523875 94.546791 -45.569820 -15.089254 13.635227 12.073656 -10.587042 7.881864 -0.000000 14.975225 -0.000001 2.048187 -15.021630 -1.501713 -0.000001 -5.569632 -0.000003 -6.470354 -4.166063 14.395756 0.000002 18.109722 -0.000003 -5.674998 -14.760366 -12.784563 -0.000003 -8.643856 0.000007
-0.013133 1.129021 -1.114368 7.323332 -2.304481 -149.141830 -0.514523 -8.652944 -3.415959 1.441917 15.029307 -3.635428 -2.437855 3.290314 -6.582816 3.364274 -1.100691 -6.672360 6.546528 8.798503 -28.739016 12.749250 25.527088 -76.591621 -13.048251 -12.131455 -47.798313 5.929666 37.594288 -17.362700 -0.486936 11.287262 0.390940 43.787918 14.498096 1.108861 4.550490 0.175337 92.201889 -43.843182 -10.997658 12.123333 13.066632 -11.884553 9.317904 -0.000000 16.031404 0.000004 2.500735 -14.853935 -1.946614 0.000001 -6.254713 -0.000003 -5.759423 -5.339486 14.692347 0.000000 17.963425 -0.000001 -4.872278 -14.314960 -12.827153 0.000001 -9.820867 0.000000
-0.011715 1.130000 -1.113060 8.191811 -2.806381 -149.941483 -0.656735 -8.634459 -4.366161 1.657298 14.737955 -4.596074 -2.498431 1.990397 -5.664654 3.798521 -0.575562 -5.723092 6.837059 7.910308 -23.471622 12.619736 25.325201 -80.512634 -10.702725 -11.351979 -43.836788 2.292401 37.775433 -14.739614 -1.192490 8.962874 0.658084 46.348614 14.902824 1.976368 2.491419 -0.025629 89.411118 -41.482899 -7.038518 10.673896 14.022028 -12.730683 11.189983 0.000001 16.395077 -0.000002 2.908766 -14.235970 -2.579352 0.000000 -6.832397 0.000001 -5.077304 -6.709292 15.439824 -0.000001 18.297709 0.000003 -3.806799 -13.735413 -12.324627 0.000000 -10.852489 0.000003
-0.011810 1.130627 -1.112376 8.917151 -3.385332 -150.725677 -0.834291 -8.834192 -5.416639 1.831293 14.493221 -5.639836 -2.393672 0.746967 -4.133878 4.165181 0.338664 -4.197109 7.242154 7.287663 -18.599438 12.010443 25.392305 -83.541428 -7.704581 -9.131523 -40.446304 0.976992 37.830750 -13.014209 -2.134534 7.226621 1.203372 48.033737 15.943359 2.972287 1.023289 -0.054536 86.949570 -38.058075 -4.715166 10.164798 14.748602 -13.222133 13.206440 -0.000002 16.241827 0.000002 3.139597 -13.688348 -3.537865 -0.000000 -7.387184 -0.000001 -4.548666 -8.131917 16.254128 0.000001 19.028378 0.000001 -2.916846 -13.467771 -12.017286 -0.000000 -11.816145 -0.000003
